<?xml version="1.0" encoding="utf-8"?>
<!-- Generator: Adobe Illustrator 18.0.0, SVG Export Plug-In . SVG Version: 6.00 Build 0)  -->
<!DOCTYPE svg PUBLIC "-//W3C//DTD SVG 1.1//EN" "http://www.w3.org/Graphics/SVG/1.1/DTD/svg11.dtd">
<svg version="1.1" id="Layer_1" xmlns="http://www.w3.org/2000/svg" xmlns:xlink="http://www.w3.org/1999/xlink" x="0px" y="0px"
	 viewBox="0 0 841.9 279" enable-background="new 0 0 841.9 279" xml:space="preserve">
<g>
	<g id="naslov_2_">
		<g>
			<path fill="#EA7E23" d="M312.3,171.6c0-2.8,0.1-5,0.1-7.2c0-10.3-0.8-21.4-4.1-21.4c-4,0-9.4,15.4-10.1,23.9
				c-0.3,3.3-3.8,4.2-7.7,4.2c-2.8,0-3.2-0.9-3.2-0.9c-0.8-0.3-0.9-5.2-0.9-9.9c0-4.4,0.2-8.6,0.2-8.6s0.9-32.5,2.9-39.6
				c0.7-2.4,5.8-4.6,9.7-4.6c0,0,1.8,0.1,1.8,1.1c0,0-1.6,20.1-1.6,28.4c0,2.2,0,3.6,0.4,3.6c0.3,0,0.6-0.5,0.8-0.9
				c0,0,4.6-10.3,12.8-10.3c9.6,0,10.8,17.3,10.8,25.6c0,0,0,11.8-1.2,13.9c-1.4,2.5-4.4,4.1-8.4,4.1
				C312.5,173.1,312.3,172.3,312.3,171.6z"/>
		</g>
		<g>
			<path fill="#EA7E23" d="M362.6,171.3c-3.2,0-5.7-0.8-7.6-2.6c-1.9-1.9-2.6-9-2.6-9c-0.1-0.5-0.2-0.7-0.3-0.7
				c-0.3,0-0.5,0.5-0.5,0.5c-5.6,8.8-9.9,11.6-15,11.6c-5.5,0-9-7.3-9-13.7c0-18.1,10-28.3,19.9-28.3c2.6,0,4.9,1.4,5.5,2.5
				c0,0,0.3,0.3,0.4,0.3c0.1,0,0.2-0.1,0.3-0.3c0,0,0.7-4.4,5.6-4.4c2.1,0,2.9,0.6,3.5,1.5c1.5,2.4,2,15.9,2,27.2
				C364.8,169.1,364.8,171.3,362.6,171.3z M350.3,137.3c-5.2,0-9.5,8-9.5,14.5c0,1.7,0.3,5,2.4,5c4.4,0,9.1-10.8,9.1-12.6
				c0-1.2,0.2-4.4,0.2-6C352.5,137.6,351.3,137.3,350.3,137.3z"/>
		</g>
		<g>
			<path fill="#EA7E23" d="M383.4,171.9c-0.1,1-0.1,2.3-0.1,3.8c0,5.9,0.5,14.2,0.5,14.2c0,4.2-6.2,7.5-10.1,7.5
				c-2.1,0-2.6-1.2-2.6-1.2c-0.9-0.9-1.1-15.2-1.1-25.7c0-6.1,0.1-11,0.1-11c0-13.3,1.3-29.5,1.5-31c0.5-2.8,5.2-5.2,8.8-5.2
				c1.5,0,2.3,0.4,2.3,1.6c0,0-0.3,3.8-0.3,7.3c0,0,0.1,0.6,0.6,0.6c0.2,0,0.4-0.1,0.7-0.3c0,0,5.5-3.9,10.7-3.9
				c7.8,0,11.7,5.7,11.7,18c0,18.6-14.3,24.6-21.9,24.6C383.7,171.1,383.4,171.9,383.4,171.9z M382.9,141.5
				c-0.1,0.4-0.3,2.3-0.3,4.7c0,5.9,0.9,15.3,5.6,15.3c2.8,0,4.9-3.5,4.9-11.1c0-9.6-2.5-11.6-5.7-11.6
				C385.1,138.8,383.2,140.3,382.9,141.5z"/>
		</g>
		<g>
			<path fill="#EA7E23" d="M421.5,171.9c-0.1,1-0.1,2.3-0.1,3.8c0,5.9,0.5,14.2,0.5,14.2c0,4.2-6.2,7.5-10.1,7.5
				c-2.1,0-2.6-1.2-2.6-1.2c-0.9-0.9-1.1-15.2-1.1-25.7c0-6.1,0.1-11,0.1-11c0-13.3,1.3-29.5,1.5-31c0.5-2.8,5.2-5.2,8.8-5.2
				c1.5,0,2.3,0.4,2.3,1.6c0,0-0.3,3.8-0.3,7.3c0,0,0.1,0.6,0.6,0.6c0.2,0,0.4-0.1,0.7-0.3c0,0,5.5-3.9,10.7-3.9
				c7.8,0,11.7,5.7,11.7,18c0,18.6-14.3,24.6-21.9,24.6C421.9,171.1,421.5,171.9,421.5,171.9z M421,141.5c-0.1,0.4-0.3,2.3-0.3,4.7
				c0,5.9,0.9,15.3,5.6,15.3c2.8,0,4.9-3.5,4.9-11.1c0-9.6-2.5-11.6-5.7-11.6C423.2,138.8,421.4,140.3,421,141.5z"/>
		</g>
		<g>
			<path fill="#EA7E23" d="M451.6,186.3c0-4.4,5.9,0.5,12.8-6.4c3.6-3.6,6.6-9.6,6.6-21c0-0.5-0.1-0.7-0.3-0.7
				c-0.3,0-0.8,0.6-0.8,0.6c-5.6,8.8-9.8,11.6-13.2,11.6c-5.9,0-9.6-5.1-9.6-19.5c0-11.3,3.5-20.7,3.5-20.7c0.5-1.5,1.5-1.9,3.4-1.9
				c1.5,0,7.6,0.9,7.6,4.4c0,0-2.3,7.4-2.3,14.1c0,3.7,0.6,7.9,2.9,7.9c3.8,0,8.5-11.7,8.9-15.1c0.6-4.9-0.2-6,1.5-7.6
				c1-1,4.4-2.6,7.3-2.6c1.9,0,2.3,0.3,2.5,0.9c0.5,1.5,1.2,20.1,1.2,25.4c0,24-7.9,39.5-21.7,39.5
				C454.6,195.1,451.6,190.3,451.6,186.3z"/>
		</g>
		<g>
			<path fill="#8DC63F" d="M534.1,173.1c-2.6,0-2.6-1.2-2.5-2.3c0.2-1.1,0.6-8.5,0.6-8.5c0-12.1-0.2-19.7-3.2-19.7
				c-3.9,0-7.5,11.2-7.5,22.1c0,3.6-4.5,4.4-8.2,4.4c-2.6,0-3.2-0.9-3.2-2c0-2.3,0.5-8.1,0.5-11.3c0-9-1.3-13.2-3-13.2
				c-4.4,0-9.1,14.3-9.1,25.3c0,2.8-4,4.2-7.8,4.2c-3.6,0-3.6-1.7-3.6-2.1c-0.1-1.5-0.1-3.4-0.1-5.5c0-12.7,1.3-32.1,3.1-34.3
				c2-2.3,5.3-3.2,8.4-3.2c0.5,0,2,0.1,2,1.5c0,0-0.7,5.7-0.7,8.8c0,1,0.2,1.9,0.7,1.9c0.2,0,0.4-0.3,0.7-0.6
				c1.6-2.3,5-8.6,11.4-8.6c4.4,0,7.3,4.7,8.2,8.5c0,0,0.2,0.6,0.5,0.6c0.2,0,0.3-0.1,0.5-0.5c1.5-3.2,6-10.2,11.7-10.2
				c10.7,0,10.7,21,10.7,38.6C544.1,171.2,537.9,173.1,534.1,173.1z"/>
		</g>
		<g>
			<path fill="#8DC63F" d="M582.2,171.3c-3.2,0-5.7-0.8-7.6-2.6c-1.9-1.9-2.6-9-2.6-9c-0.1-0.5-0.2-0.7-0.3-0.7
				c-0.3,0-0.5,0.5-0.5,0.5c-5.6,8.8-9.9,11.6-15,11.6c-5.5,0-9-7.3-9-13.7c0-18.1,10-28.3,19.9-28.3c2.6,0,4.9,1.4,5.5,2.5
				c0,0,0.3,0.3,0.4,0.3c0.1,0,0.2-0.1,0.3-0.3c0,0,0.7-4.4,5.6-4.4c2.1,0,2.9,0.6,3.5,1.5c1.5,2.4,2,15.9,2,27.2
				C584.4,169.1,584.3,171.3,582.2,171.3z M569.8,137.3c-5.2,0-9.5,8-9.5,14.5c0,1.7,0.3,5,2.4,5c4.4,0,9.1-10.8,9.1-12.6
				c0-1.2,0.2-4.4,0.2-6C572,137.6,570.8,137.3,569.8,137.3z"/>
		</g>
		<g>
			<path fill="#8DC63F" d="M635.9,173.1c-2.6,0-2.6-1.2-2.5-2.3c0.2-1.1,0.6-8.5,0.6-8.5c0-12.1-0.2-19.7-3.2-19.7
				c-3.9,0-7.5,11.2-7.5,22.1c0,3.6-4.5,4.4-8.2,4.4c-2.6,0-3.2-0.9-3.2-2c0-2.3,0.5-8.1,0.5-11.3c0-9-1.3-13.2-3-13.2
				c-4.4,0-9.1,14.3-9.1,25.3c0,2.8-4,4.2-7.8,4.2c-3.6,0-3.6-1.7-3.6-2.1c-0.1-1.5-0.1-3.4-0.1-5.5c0-12.7,1.3-32.1,3.1-34.3
				c2-2.3,5.3-3.2,8.4-3.2c0.5,0,2,0.1,2,1.5c0,0-0.7,5.7-0.7,8.8c0,1,0.2,1.9,0.7,1.9c0.2,0,0.4-0.3,0.7-0.6
				c1.6-2.3,5-8.6,11.4-8.6c4.4,0,7.3,4.7,8.2,8.5c0,0,0.2,0.6,0.5,0.6c0.2,0,0.3-0.1,0.5-0.5c1.5-3.2,6-10.2,11.7-10.2
				c10.7,0,10.7,21,10.7,38.6C645.8,171.2,639.6,173.1,635.9,173.1z"/>
		</g>
		<g>
			<path fill="#8DC63F" d="M696.5,173.1c-2.6,0-2.6-1.2-2.5-2.3c0.2-1.1,0.6-8.5,0.6-8.5c0-12.1-0.2-19.7-3.2-19.7
				c-3.9,0-7.5,11.2-7.5,22.1c0,3.6-4.5,4.4-8.2,4.4c-2.6,0-3.2-0.9-3.2-2c0-2.3,0.5-8.1,0.5-11.3c0-9-1.3-13.2-3-13.2
				c-4.4,0-9.1,14.3-9.1,25.3c0,2.8-4,4.2-7.8,4.2c-3.6,0-3.6-1.7-3.6-2.1c-0.1-1.5-0.1-3.4-0.1-5.5c0-12.7,1.3-32.1,3.1-34.3
				c2-2.3,5.3-3.2,8.4-3.2c0.5,0,2,0.1,2,1.5c0,0-0.7,5.7-0.7,8.8c0,1,0.2,1.9,0.7,1.9c0.2,0,0.4-0.3,0.7-0.6
				c1.6-2.3,5-8.6,11.4-8.6c4.4,0,7.3,4.7,8.2,8.5c0,0,0.2,0.6,0.5,0.6c0.2,0,0.3-0.1,0.5-0.5c1.5-3.2,6-10.2,11.7-10.2
				c10.7,0,10.7,21,10.7,38.6C706.5,171.2,700.2,173.1,696.5,173.1z"/>
		</g>
		<g>
			<path fill="#8DC63F" d="M744.5,171.3c-3.2,0-5.7-0.8-7.6-2.6c-1.9-1.9-2.6-9-2.6-9c-0.1-0.5-0.2-0.7-0.3-0.7
				c-0.3,0-0.5,0.5-0.5,0.5c-5.6,8.8-9.9,11.6-15,11.6c-5.5,0-9-7.3-9-13.7c0-18.1,10-28.3,19.9-28.3c2.6,0,4.9,1.4,5.5,2.5
				c0,0,0.3,0.3,0.4,0.3c0.1,0,0.2-0.1,0.3-0.3c0,0,0.7-4.4,5.6-4.4c2.1,0,2.9,0.6,3.5,1.5c1.5,2.4,2,15.9,2,27.2
				C746.7,169.1,746.7,171.3,744.5,171.3z M732.1,137.3c-5.2,0-9.5,8-9.5,14.5c0,1.7,0.3,5,2.4,5c4.4,0,9.1-10.8,9.1-12.6
				c0-1.2,0.2-4.4,0.2-6C734.4,137.6,733.2,137.3,732.1,137.3z"/>
		</g>
	</g>
	<g id="znak_2_">
		<g>
			<path fill="#8DC63F" d="M168.2,91.9c-0.3,0.1-0.5,0.3-0.8,0.5c-0.4,0.3-0.9,0.5-1.3,0.8c-0.9-0.8-1.9-1.6-2.8-2.3
				c-2.2-2.2-4.8-4-7.5-5.4c-16.5-8.6-39.1-3.9-51.4,10c-5.2,6-7.9,13.4-8.9,21.2c-1.2,9.6,0.9,19.1,5.9,27.3
				c8.3,13.8,22.5,22.7,36.3,30.3c1,0.6,2.2,0.8,3.4,0.7c3.5-0.4,5.9-3.9,4.9-7.3c-0.8-2.6-3-3.6-5.2-4.7c-7.4-3.6-14.6-7.6-21-12.7
				c-6.8-5.4-12.7-12.2-15.3-20.6c-1.4-4.6-1.7-9.4-1.1-14.2c0.4-3.5,1.2-7.1,2.7-10.3c3.7-8,11.1-13.7,19.2-16.7
				c8.7-3.3,18.8-3.8,27.5-0.3c2.1,0.8,4.1,1.9,5.9,3.1c1.1,0.7,2,1.6,3.1,2.4c1.5,1.1,3,2.2,4.5,3.2c0.1,0.1,3.2-3.3,3.4-3.6
				C170,92.4,169,91.4,168.2,91.9z"/>
		</g>
		<g>
			<path fill="#EA7E23" d="M240.1,100.4c-2-12.1-8.3-21-18.4-25.8c-12.6-6-30.9-4.9-44.5,2.7c-2.8,1.6-5.5,3.6-8.3,6.3
				c-0.3,0.3-1.2,1.4-2.2,2.6c-1.8,2.2-2.5,3.1-2.9,3.4c1.4,0.1,4.9,0.6,6.3,1.1c0.5,0.2,0.9,0.6,1.3,1.2c0,0,1,1.4,1.2,2.2
				c1.6-4.1,5.3-7.6,10.6-10.1c5-2.3,11-3.6,17.1-3.6c0.2,0,0.4,0,0.6,0c6.1,0.1,11.8,1.4,16.3,3.9c5.2,2.8,8.7,6.9,10.4,12
				c3.3,9.6,1.1,16-7,20.4c-0.9,0.6-1.9,1.1-2.9,1.4c0.9-0.6,1.6-1.3,2.4-2c0.4-0.4,0.8-0.8,1.2-1.2c0.1-0.1,0.2-0.2,0.2-0.3
				c-1.6-4.6-5.5-10.2-10.7-12.2c-3.5-1.4-7.6-1.7-11.9-1.1c-4.9,0.7-12.6,4.2-16.3,9.2h0c-1.4,2-1.9,4.3-2.1,6.7c0,0,0,0.1-0.1,0.1
				c0,0,0,0,0,0c0,0-0.1,0-0.1-0.1c0-0.5,0-0.9,0-1.4c-0.1-1.5-0.1-3,0.3-4.5c-5.3,0.5-8.9,2.7-11.3,6.8c2.8-0.8,5.7-1.1,8.6-1
				c2.4,0.1,4.8,0.6,6.8,2c1.1,0.8,1.8,1.9,2.1,3.2c0.3,0.7,0.5,1.5,0.5,2.4c0,0,0,0.1-0.1,0.1c0,0-0.1,0-0.1-0.1
				c-0.1-1.4-0.5-2.6-1.1-3.5c0,0-0.1-0.1-0.1-0.1c0,0,0,0,0,0c-0.4-0.5-0.8-0.9-1.3-1.2c-1.7-1.3-4.3-1.5-6.3-1.4
				c-2.7,0.1-5.5,0.7-8.2,1.7c-1.7,0.7-3.1,1.6-4.1,2.4c-3.9,3.3-5.7,8.9-4.9,15.3c0.2,1.9,0.6,3.7,1.2,5.4c0.4,0.9,0.9,1.8,1.4,2.6
				c1.4,2.4,3.3,4.6,5.5,6.4c3.3,2.7,7,4.5,11.1,5.4c3,0.7,6.3,0.7,9.3,0.3c2-0.3,3.9-0.8,5.8-1.6c1.6-0.7,3-1.7,4.3-2.9
				c-1,1-2.1,1.8-3.2,2.6c1.3-0.7,2.5-1.6,3.5-2.6c0,0,0.1,0,0.1,0c0,0,0,0.1,0,0.1c-1.7,1.7-3.8,3-6.3,3.9
				c-0.2,0.1-0.3,0.1-0.5,0.2c-2.7,1-5.5,1.5-8.4,1.6c-3.6,0.1-7.3-0.4-10.7-1.7c-3.8-1.4-7.4-3.9-10.1-6.9
				c-1.5-1.6-2.8-3.3-3.9-5.2c-5.1,6.6-9.7,14.2-13.6,22.6c-3.2,7.5-4.4,14-3.8,19.6c-3.7-1-6.1-4.6-8.1-8.4c0,3.8,2.2,7.4,3.9,9.8
				c2.2,3.1,4.7,6,7.4,8.3c0,0,0,0,0,0l0.2-0.1c6.2,10.5,19.9,13.1,30.1,9.5c0.3-0.2,0.8-0.3,1.2-0.5c0.4-0.2,0.8-0.3,1.2-0.5
				c3-1,3.6-4.8,2.9-7.9v0c0,0,0,0,0,0c0,0,0,0,0,0c0,0,0,0,0,0c0,0,0,0,0,0v0h0c0,0,0,0,0,0c0,0,0,0,0,0c0,0,0,0,0,0h0v0
				c0,0,0,0,0,0c0,0,0,0,0,0c0.7,2.6,1.7,5.5,4.4,6.9c3.9,1.6,8.3,1.7,12.5,1.9c1.2,0,2.5,0.1,3.7,0.2c0,0,0,0,0.1,0
				c0.3-8,1-16,0.1-23.9c-0.2-1.6-0.5-3.1-0.8-4.7c-0.4-1-0.8-2-1.2-2.9c-0.5-1.1-1.2-2.1-1.9-3c-1.2-1.6-2.9-3-4.6-4
				c-1.2-0.7-2.5-1.3-3.9-1.8c-3.6-1.1-7.2-1.3-10.1-1.3h-0.1c0,0-0.1,0-0.1-0.1c0,0,0-0.1,0.1-0.1c0,0,0,0,0.1,0h0.4c0,0,0,0,0,0
				c0.8,0,1.6,0,2.5,0.1c-0.4,0-0.7-0.1-1.1-0.1c-0.5,0-1.2,0-1.7-0.1c0,0-0.1,0-0.1,0c0,0,0,0,0.1,0c0,0,0,0-0.1,0c0,0,0.1,0,0.1,0
				c0.6-0.1,1.3,0,1.9,0c0.8,0,1.6,0,2.4,0.1c1.5,0.1,3,0.3,4.4,0.6c2.8,0.6,5.5,1.8,7.8,3.5c2.1,1.6,3.7,3.5,5,5.8
				c0.3,0.6,0.6,1.2,0.9,1.8c0.2,0.4,0.4,0.8,0.5,1.2c0.1,0.6,0.3,1.2,0.4,1.8c0.5,1.9,0.8,3.9,1,5.9c0.4,4.1,0.6,8.1,0.6,12.2
				c0,3,0,6.1,0,9.1c2-0.1,3.9,0,5.8,0.1c3.4,0.1,6.9,0.2,10.3-0.4c0-10.4-1.8-20.5-5.7-31.7c-2.2-6.2-4.4-13.6-4.4-21
				c0-9.9,7.3-15.1,14.3-20.2c1.9-1.3,3.8-2.7,5.6-4.2C239.4,122.6,242.3,113.4,240.1,100.4z"/>
		</g>
	</g>
	<g>
		<path fill="#EA7E23" d="M492,189.6h-1.8v-1.7h1.8v-1.2c0-1.5,0.4-2.7,1.2-3.4c0.7-0.7,1.7-1,2.9-1c0.9,0,1.5,0.1,2.2,0.3v1.7
			c-0.7-0.2-1.3-0.3-1.9-0.3c-1.5,0-2.3,0.9-2.3,2.8v1.1h4.2v1.7h-4.2v11.6h-2V189.6z"/>
		<path fill="#EA7E23" d="M501.9,197.3L501.9,197.3c0-2.9,2.3-4.4,5.7-4.4c1.7,0,2.9,0.2,4.1,0.6V193c0-2.4-1.4-3.6-3.9-3.6
			c-1.6,0-2.8,0.4-4,1l-0.6-1.6c1.5-0.7,2.9-1.1,4.8-1.1c1.9,0,3.4,0.5,4.3,1.5c0.9,0.9,1.4,2.2,1.4,3.9v8.1h-2v-2
			c-0.9,1.2-2.5,2.3-4.8,2.3C504.3,201.4,501.9,200,501.9,197.3z M511.7,196.2V195c-1-0.3-2.3-0.6-3.9-0.6c-2.5,0-3.9,1.1-3.9,2.7
			v0.1c0,1.7,1.5,2.7,3.4,2.7C509.7,199.8,511.7,198.4,511.7,196.2z"/>
		<path fill="#EA7E23" d="M520.4,187.8h2v2.2c0.9-1.3,2.1-2.5,4.3-2.5c2.2,0,3.6,1.2,4.3,2.7c1-1.5,2.4-2.7,4.7-2.7
			c3.1,0,5,2.1,5,5.4v8.3h-2v-7.8c0-2.6-1.3-4-3.5-4c-2,0-3.7,1.5-3.7,4.1v7.7h-2v-7.8c0-2.5-1.3-4-3.4-4c-2.1,0-3.7,1.8-3.7,4.2
			v7.6h-2V187.8z"/>
		<path fill="#EA7E23" d="M547.5,182.7h2.3v2.2h-2.3V182.7z M547.7,187.8h2v13.3h-2V187.8z"/>
		<path fill="#EA7E23" d="M557,182.3h2v18.8h-2V182.3z"/>
		<path fill="#EA7E23" d="M565.4,204.7l0.7-1.6c0.6,0.3,1.2,0.5,2.1,0.5c1.2,0,1.9-0.6,2.7-2.5l-6.1-13.3h2.2l4.8,11.1l4.3-11.1h2.1
			l-5.6,13.8c-1.1,2.8-2.4,3.8-4.4,3.8C567.2,205.3,566.3,205.1,565.4,204.7z"/>
		<path fill="#EA7E23" d="M593.2,187.8h2.1l3.5,10.7l3.6-10.8h1.7l3.6,10.8l3.5-10.7h2.1l-4.7,13.4h-1.7l-3.6-10.5l-3.6,10.5h-1.8
			L593.2,187.8z"/>
		<path fill="#EA7E23" d="M624.4,199.7c1.8,0,3.1-0.7,4.2-1.9l1.2,1.1c-1.3,1.5-3,2.5-5.5,2.5c-3.7,0-6.7-2.8-6.7-7
			c0-3.9,2.7-7,6.4-7c3.9,0,6.2,3.1,6.2,7.1c0,0.2,0,0.4,0,0.7h-10.6C620,198.1,622,199.7,624.4,199.7z M628.3,193.7
			c-0.2-2.4-1.6-4.5-4.3-4.5c-2.3,0-4,1.9-4.3,4.5H628.3z"/>
		<path fill="#EA7E23" d="M636.5,182.3h2v18.8h-2V182.3z"/>
		<path fill="#EA7E23" d="M645.9,182.3h2v18.8h-2V182.3z"/>
		<path fill="#EA7E23" d="M654.5,192.3h7.2v2.1h-7.2V192.3z"/>
		<path fill="#EA7E23" d="M670.1,198.6v2.6h-2v-18.8h2v8.2c1.1-1.6,2.7-3,5.1-3c3.2,0,6.4,2.5,6.4,6.9v0.1c0,4.4-3.1,6.9-6.4,6.9
			C672.8,201.4,671.2,200.1,670.1,198.6z M679.6,194.5L679.6,194.5c0-3.2-2.2-5.2-4.7-5.2c-2.5,0-4.8,2.1-4.8,5.1v0.1
			c0,3.1,2.3,5.2,4.8,5.2C677.5,199.6,679.6,197.7,679.6,194.5z"/>
		<path fill="#EA7E23" d="M693.7,199.7c1.8,0,3.1-0.7,4.2-1.9l1.2,1.1c-1.3,1.5-3,2.5-5.5,2.5c-3.7,0-6.7-2.8-6.7-7
			c0-3.9,2.7-7,6.4-7c3.9,0,6.2,3.1,6.2,7.1c0,0.2,0,0.4,0,0.7h-10.6C689.3,198.1,691.4,199.7,693.7,199.7z M697.6,193.7
			c-0.2-2.4-1.6-4.5-4.3-4.5c-2.3,0-4,1.9-4.3,4.5H697.6z"/>
		<path fill="#EA7E23" d="M705.8,182.7h2.3v2.2h-2.3V182.7z M705.9,187.8h2v13.3h-2V187.8z"/>
		<path fill="#EA7E23" d="M715.1,187.8h2v2.3c0.9-1.4,2.3-2.6,4.6-2.6c3.2,0,5.1,2.2,5.1,5.3v8.3h-2v-7.8c0-2.5-1.3-4-3.7-4
			c-2.3,0-4,1.7-4,4.2v7.6h-2V187.8z"/>
		<path fill="#EA7E23" d="M733.4,203.5l0.9-1.5c1.5,1.1,3.2,1.7,5.1,1.7c2.9,0,4.8-1.6,4.8-4.7v-1.6c-1.2,1.5-2.8,2.8-5.2,2.8
			c-3.2,0-6.3-2.4-6.3-6.2v-0.1c0-3.9,3.1-6.3,6.3-6.3c2.5,0,4.1,1.2,5.2,2.7v-2.4h2v11c0,2.1-0.6,3.6-1.7,4.7
			c-1.2,1.2-3,1.8-5.1,1.8C737.2,205.3,735.2,204.7,733.4,203.5z M744.3,193.8L744.3,193.8c0-2.8-2.4-4.6-4.9-4.6
			c-2.5,0-4.6,1.8-4.6,4.5v0.1c0,2.7,2.1,4.5,4.6,4.5C741.9,198.4,744.3,196.5,744.3,193.8z"/>
	</g>
</g>
</svg>
